<svg width="19" height="19" viewBox="0 0 19 19" fill="none" xmlns="http://www.w3.org/2000/svg">
<circle cx="9.33002" cy="9.5" r="9" fill="#89EAC2"/>
<path d="M14.3735 6.53758C14.0156 6.69664 13.6378 6.79605 13.2402 6.8557C13.6378 6.61711 13.9559 6.23935 14.0951 5.78206C13.7173 6.00076 13.2998 6.15982 12.8425 6.25923C12.4847 5.88147 11.9677 5.64288 11.411 5.64288C10.3374 5.64288 9.46256 6.5177 9.46256 7.59134C9.46256 7.75039 9.48245 7.88957 9.52221 8.02874C7.91175 7.94922 6.46036 7.17381 5.48613 5.98088C5.32707 6.27911 5.22766 6.59723 5.22766 6.95511C5.22766 7.6311 5.56566 8.22757 6.10248 8.58545C5.78436 8.56556 5.48613 8.48603 5.20778 8.34686V8.36674C5.20778 9.32109 5.88377 10.1164 6.77847 10.2953C6.61941 10.3351 6.44047 10.355 6.26153 10.355C6.14224 10.355 6.00307 10.3351 5.88377 10.3152C6.14224 11.0906 6.858 11.6672 7.71293 11.6672C7.03694 12.1841 6.20189 12.5022 5.28731 12.5022C5.12825 12.5022 4.96919 12.5022 4.83002 12.4824C5.70483 13.0391 6.71882 13.3572 7.83223 13.3572C11.4309 13.3572 13.3992 10.3748 13.3992 7.79016C13.3992 7.71063 13.3992 7.61122 13.3992 7.53169C13.777 7.27322 14.115 6.93523 14.3735 6.53758Z" fill="white"/>
</svg>
