<svg width="17" height="16" viewBox="0 0 17 16" fill="none" xmlns="http://www.w3.org/2000/svg">
<circle cx="8.33002" cy="8" r="8" fill="#89EAC2"/>
<path d="M11.0856 11.1111C10.2856 11.1111 9.48559 10.9333 8.77448 10.5778C7.97448 10.2222 7.35225 9.77779 6.73003 9.15557C6.10781 8.62224 5.66336 7.91112 5.30781 7.20001C4.95225 6.40001 4.77448 5.60001 4.77448 4.80001C4.77448 4.71112 4.77448 4.62224 4.86336 4.53335C4.95225 4.44446 5.04114 4.44446 5.21892 4.44446H6.73003C6.81892 4.44446 6.90781 4.44446 6.9967 4.53335C7.08559 4.62224 7.08559 4.62224 7.08559 4.71112L7.35225 6.04446C7.35225 6.13335 7.35225 6.22224 7.35225 6.31112C7.35225 6.40001 7.26336 6.4889 7.26336 6.4889L6.37448 7.37779C6.64114 7.82224 6.9967 8.26668 7.35225 8.62224C7.70781 8.97779 8.15225 9.33335 8.5967 9.60001L9.48559 8.71112C9.57447 8.62224 9.57448 8.62224 9.66336 8.62224C9.75225 8.62224 9.84114 8.62224 9.93003 8.62224L11.1745 8.8889C11.2634 8.8889 11.3523 8.8889 11.3523 8.97779C11.4411 9.06668 11.4411 9.15557 11.4411 9.24446V10.7556C11.4411 10.8445 11.4411 10.9333 11.3523 11.0222C11.2634 11.1111 11.1745 11.1111 11.0856 11.1111Z" fill="white"/>
</svg>
