<svg width="19" height="19" viewBox="0 0 19 19" fill="none" xmlns="http://www.w3.org/2000/svg">
<circle cx="9.33002" cy="9.5" r="9" fill="#FFBA00"/>
<g clip-path="url(#clip0_797_74347)">
<path d="M9.89576 8.0086H8.25004V13.3572H9.89576V10.58C9.89576 9.03717 11.9529 8.83145 11.9529 10.58V13.3572H13.5986V9.96288C13.5986 7.2886 10.6158 7.39145 9.89576 8.7286V8.0086ZM7.22147 8.0086H5.4729V13.3572H7.22147V8.0086ZM7.22147 6.46574C7.22147 6.67145 7.11861 6.87717 7.01576 7.08288C6.81004 7.2886 6.60433 7.39145 6.29576 7.39145C6.09004 7.39145 5.88433 7.2886 5.67861 7.18574C5.57576 6.98003 5.4729 6.77431 5.4729 6.46574C5.4729 6.26003 5.57576 6.05431 5.67861 5.8486C5.88433 5.74574 6.09004 5.64288 6.29576 5.64288C6.50147 5.64288 6.70719 5.74574 6.9129 5.8486C7.11861 6.05431 7.22147 6.26003 7.22147 6.46574Z" fill="white"/>
</g>
<defs>
<clipPath id="clip0_797_74347">
<rect width="8.12571" height="7.71429" fill="white" transform="translate(5.4729 5.64288)"/>
</clipPath>
</defs>
</svg>
