<svg width="17" height="16" viewBox="0 0 17 16" fill="none" xmlns="http://www.w3.org/2000/svg">
<circle cx="8.33002" cy="8" r="8" fill="#003ACF"/>
<g clip-path="url(#clip0_797_74317)">
<path d="M8.83289 6.67427H7.37003V11.4286H8.83289V8.95998C8.83289 7.58855 10.6615 7.4057 10.6615 8.95998V11.4286H12.1243V8.41141C12.1243 6.03427 9.47289 6.1257 8.83289 7.31427V6.67427ZM6.45574 6.67427H4.90146V11.4286H6.45574V6.67427ZM6.45574 5.30284C6.45574 5.4857 6.36432 5.66855 6.27289 5.85141C6.09003 6.03427 5.90717 6.1257 5.63289 6.1257C5.45003 6.1257 5.26717 6.03427 5.08432 5.94284C4.99289 5.75998 4.90146 5.57713 4.90146 5.30284C4.90146 5.11998 4.99289 4.93713 5.08432 4.75427C5.26717 4.66284 5.45003 4.57141 5.63289 4.57141C5.81574 4.57141 5.9986 4.66284 6.18146 4.75427C6.36432 4.93713 6.45574 5.11998 6.45574 5.30284Z" fill="white"/>
</g>
<defs>
<clipPath id="clip0_797_74317">
<rect width="7.22286" height="6.85714" fill="white" transform="translate(4.90146 4.57141)"/>
</clipPath>
</defs>
</svg>
