<svg width="17" height="16" viewBox="0 0 17 16" fill="none" xmlns="http://www.w3.org/2000/svg">
<circle cx="8.33002" cy="8" r="8" fill="#FF92B4"/>
<path d="M8.50781 4.44446C6.46336 4.44446 4.77448 6.13335 4.77448 8.17779C4.77448 9.15557 5.13003 10.1333 5.84114 10.7556C6.1967 11.1111 6.55225 11.3778 7.08559 11.5556C7.53003 11.7333 7.97447 11.8222 8.50781 11.8222C9.48559 11.8222 10.4634 11.4667 11.0856 10.7556C11.7967 10.0445 12.1523 9.15557 12.1523 8.17779C12.1523 7.73335 12.0634 7.20001 11.8856 6.75557C11.7078 6.31113 11.4411 5.86668 11.0856 5.51112C10.73 5.15557 10.3745 4.8889 9.84114 4.71112C9.48559 4.53335 8.95225 4.44446 8.50781 4.44446ZM10.9967 6.66668H9.93003C9.84114 6.22224 9.66336 5.77779 9.3967 5.33335C10.1078 5.60001 10.6411 6.04446 10.9967 6.66668ZM8.50781 5.15557C8.77447 5.60001 9.04114 6.13335 9.21892 6.66668H7.7967C7.88559 6.13335 8.15225 5.60001 8.50781 5.15557ZM5.57448 8.8889C5.48559 8.62224 5.48559 8.44446 5.48559 8.17779C5.48559 7.91112 5.48559 7.64446 5.57448 7.46668H6.81892C6.81892 7.73335 6.73003 8.00001 6.73003 8.17779C6.73003 8.35557 6.73003 8.71112 6.81892 8.8889M5.93003 9.60001H6.9967C7.08559 10.0445 7.26336 10.4889 7.53003 10.9333C6.81892 10.6667 6.28559 10.2222 5.93003 9.60001ZM6.9967 6.66668H5.93003C6.28559 6.04446 6.81892 5.60001 7.53003 5.33335C7.26336 5.77779 7.08559 6.22224 6.9967 6.66668ZM8.50781 11.1111C8.24114 10.6667 7.97448 10.1333 7.7967 9.60001H9.21892C9.04114 10.1333 8.77447 10.6667 8.50781 11.1111ZM9.30781 8.8889H7.53003C7.53003 8.62224 7.44114 8.35557 7.44114 8.17779C7.44114 8.00001 7.44114 7.64446 7.53003 7.46668H9.30781C9.30781 7.73335 9.3967 8.00001 9.3967 8.17779C9.3967 8.35557 9.3967 8.62224 9.30781 8.8889ZM9.3967 10.9333C9.57447 10.4889 9.75225 10.0445 9.93003 9.60001H10.9967C10.6411 10.2222 10.1078 10.6667 9.3967 10.9333ZM10.1078 8.8889C10.1078 8.62224 10.1078 8.35557 10.1078 8.17779C10.1078 8.00001 10.1078 7.64446 10.0189 7.46668H11.2634C11.3523 7.73335 11.3523 7.91112 11.3523 8.17779C11.3523 8.44446 11.3523 8.71112 11.2634 8.8889" fill="white"/>
</svg>
