<svg width="19" height="19" viewBox="0 0 19 19" fill="none" xmlns="http://www.w3.org/2000/svg">
<circle cx="9.33002" cy="9.5" r="9" fill="#003ACF"/>
<path d="M9.3298 5.81082C10.5312 5.81082 10.6735 5.81532 11.1481 5.83696C11.4335 5.84045 11.7162 5.89285 11.9838 5.99188C12.1779 6.06674 12.3542 6.18141 12.5013 6.32851C12.6484 6.47561 12.7631 6.65188 12.8379 6.84598C12.937 7.11364 12.9894 7.39629 12.9928 7.68166C13.0143 8.15628 13.019 8.29856 13.019 9.5C13.019 10.7014 13.0145 10.8437 12.9928 11.3183C12.9894 11.6037 12.937 11.8864 12.8379 12.154C12.7631 12.3481 12.6484 12.5244 12.5013 12.6715C12.3542 12.8186 12.1779 12.9333 11.9838 13.0081C11.7162 13.1071 11.4335 13.1595 11.1481 13.163C10.6737 13.1845 10.5315 13.1892 9.3298 13.1892C8.12815 13.1892 7.98587 13.1847 7.51146 13.163C7.2261 13.1595 6.94344 13.1071 6.67579 13.0081C6.48169 12.9333 6.30541 12.8186 6.15831 12.6715C6.01121 12.5244 5.89654 12.3481 5.82168 12.154C5.72265 11.8864 5.67026 11.6037 5.66676 11.3183C5.64534 10.8437 5.64062 10.7014 5.64062 9.5C5.64062 8.29856 5.64512 8.15628 5.66676 7.68166C5.67026 7.39629 5.72265 7.11364 5.82168 6.84598C5.89654 6.65188 6.01121 6.47561 6.15831 6.32851C6.30541 6.18141 6.48169 6.06674 6.67579 5.99188C6.94344 5.89285 7.2261 5.84045 7.51146 5.83696C7.98608 5.81553 8.12836 5.81082 9.3298 5.81082ZM9.3298 5C8.10843 5 7.95458 5.00514 7.47461 5.027C7.10113 5.03443 6.73163 5.10514 6.3818 5.23613C6.08171 5.3492 5.8099 5.52638 5.58534 5.75532C5.35619 5.97996 5.17886 6.25193 5.06572 6.55221C4.93473 6.90204 4.86402 7.27154 4.85659 7.64502C4.83516 8.12457 4.83002 8.27842 4.83002 9.49979C4.83002 10.7212 4.83516 10.875 4.85702 11.355C4.86444 11.7285 4.93516 12.098 5.06615 12.4478C5.17916 12.748 5.35635 13.02 5.58534 13.2447C5.81002 13.4737 6.08198 13.6509 6.38223 13.7639C6.73206 13.8949 7.10156 13.9656 7.47503 13.973C7.95501 13.9944 8.10822 14 9.33023 14C10.5522 14 10.7055 13.9949 11.1854 13.973C11.5589 13.9656 11.9284 13.8949 12.2782 13.7639C12.5771 13.648 12.8484 13.4711 13.075 13.2444C13.3015 13.0177 13.4783 12.7463 13.5939 12.4474C13.7249 12.0975 13.7956 11.728 13.803 11.3546C13.8244 10.875 13.8296 10.7212 13.8296 9.49979C13.8296 8.27842 13.8244 8.12457 13.8026 7.64459C13.7952 7.27112 13.7245 6.90161 13.5935 6.55178C13.4804 6.25154 13.3033 5.97958 13.0743 5.75489C12.8496 5.5259 12.5776 5.34871 12.2774 5.2357C11.9276 5.10471 11.558 5.034 11.1846 5.02657C10.705 5.00514 10.5512 5 9.3298 5Z" fill="white"/>
<path d="M9.33071 7.18994C8.87368 7.18994 8.42692 7.32546 8.04692 7.57937C7.66692 7.83328 7.37075 8.19417 7.19585 8.6164C7.02096 9.03864 6.9752 9.50325 7.06436 9.95149C7.15352 10.3997 7.3736 10.8115 7.69676 11.1346C8.01993 11.4578 8.43166 11.6779 8.8799 11.767C9.32814 11.8562 9.79276 11.8104 10.215 11.6355C10.6372 11.4606 10.9981 11.1645 11.252 10.7845C11.5059 10.4045 11.6415 9.95771 11.6415 9.50069C11.6415 8.88784 11.398 8.30009 10.9647 7.86674C10.5313 7.43339 9.94356 7.18994 9.33071 7.18994ZM9.33071 11.0006C9.03405 11.0006 8.74405 10.9126 8.49739 10.7478C8.25073 10.583 8.05848 10.3488 7.94495 10.0747C7.83143 9.80061 7.80172 9.49902 7.8596 9.20807C7.91747 8.91711 8.06033 8.64985 8.2701 8.44008C8.47987 8.23031 8.74713 8.08746 9.03809 8.02958C9.32904 7.97171 9.63063 8.00141 9.9047 8.11494C10.1788 8.22846 10.413 8.42071 10.5779 8.66737C10.7427 8.91403 10.8306 9.20403 10.8306 9.50069C10.8306 9.89849 10.6726 10.28 10.3913 10.5613C10.11 10.8426 9.72851 11.0006 9.33071 11.0006Z" fill="white"/>
<path d="M11.7323 7.63812C12.0305 7.63812 12.2723 7.39636 12.2723 7.09814C12.2723 6.79992 12.0305 6.55817 11.7323 6.55817C11.4341 6.55817 11.1923 6.79992 11.1923 7.09814C11.1923 7.39636 11.4341 7.63812 11.7323 7.63812Z" fill="white"/>
</svg>
