<svg width="119" height="49" viewBox="0 0 119 49" fill="none" xmlns="http://www.w3.org/2000/svg">
<g clip-path="url(#clip0_797_74324)">
<path d="M37.8793 43.4119C36.4897 43.4119 35.2502 43.0995 34.1604 42.475C33.084 41.8644 32.1913 40.9759 31.5754 39.9022C30.9403 38.8109 30.6223 37.5705 30.6223 36.181C30.6223 34.7915 30.9403 33.5511 31.5754 32.4596C32.1913 31.3859 33.084 30.4974 34.1604 29.8869C35.2497 29.2617 36.4892 28.9492 37.8793 28.9492C39.2502 28.9492 40.4806 29.2617 41.5714 29.8869C42.6454 30.4955 43.5342 31.3848 44.1424 32.4596C44.7665 33.5511 45.0783 34.7915 45.0783 36.181C45.0783 37.5705 44.7665 38.8109 44.1424 39.9022C43.5342 40.9774 42.6454 41.8663 41.5714 42.475C40.4806 43.1004 39.2502 43.4124 37.8793 43.4119ZM37.8793 40.5348C38.5926 40.5459 39.2929 40.3438 39.8911 39.9545C40.4825 39.564 40.9641 39.028 41.2888 38.3977C41.639 37.713 41.8074 36.9496 41.7767 36.181C41.8093 35.4037 41.6409 34.6313 41.2888 33.9378C40.966 33.3094 40.4839 32.777 39.8911 32.3939C39.29 32.0125 38.5907 31.8151 37.8793 31.826C37.1574 31.8165 36.448 32.0136 35.8345 32.3939C35.2286 32.7716 34.7403 33.3106 34.4237 33.9505C34.0822 34.6435 33.9105 35.4082 33.923 36.181C33.9095 36.9495 34.0812 37.7099 34.4237 38.3977C34.7451 39.0343 35.2325 39.5722 35.8345 39.9545C36.4451 40.3428 37.1555 40.5444 37.8793 40.5348Z" fill="black"/>
<path d="M48.3441 43.1503V29.2397H51.5871V43.1503H48.3441Z" fill="black"/>
<path d="M48.418 25.7956C48.7777 26.1212 49.2833 26.2841 49.9342 26.2841C50.5823 26.2841 51.0921 26.1075 51.4644 25.7542C51.6462 25.5815 51.7896 25.3722 51.8851 25.1401C51.9805 24.908 52.0256 24.6584 52.0179 24.4075C52.0174 23.7922 51.8371 23.3217 51.4768 22.9961C51.1171 22.6704 50.6029 22.5076 49.9342 22.5076C49.3015 22.5076 48.8003 22.6842 48.4304 23.0374C48.2472 23.2143 48.1028 23.428 48.0074 23.6644C47.9119 23.9009 47.8673 24.1547 47.8769 24.4096C47.8774 25.0079 48.0577 25.4699 48.418 25.7956Z" fill="black"/>
<path d="M55.7051 43.1499V29.2394H58.87L58.9232 32.0897L58.3164 32.4076C58.5049 31.7525 58.8594 31.1572 59.3458 30.6794C59.8682 30.1512 60.4855 29.726 61.1647 29.4258C61.8435 29.1142 62.5812 28.9519 63.3281 28.9501C64.3829 28.9501 65.265 29.162 65.9754 29.5858C66.6853 30.0097 67.2216 30.643 67.5837 31.4857C67.944 32.3334 68.1243 33.3892 68.1248 34.6529V43.1499H64.8803V34.8849C64.8803 34.1786 64.7839 33.5936 64.5901 33.1302C64.4213 32.6925 64.1037 32.3283 63.6936 32.1014C63.2887 31.881 62.7966 31.7796 62.2162 31.7973C61.7715 31.7922 61.3293 31.8684 60.912 32.0219C60.1569 32.3004 59.541 32.8642 59.1976 33.5922C59.0268 33.9569 58.941 34.3553 58.9463 34.7578V43.1499H55.7022H55.7051Z" fill="black"/>
<path d="M70.5272 32.2487V29.2394H79.5465V32.2487H70.5272ZM73.2695 43.1479V25.7035H76.5106V43.1499L73.2695 43.1479Z" fill="black"/>
<path d="M82.0262 48.955V29.2398H85.218L85.2708 32.407L84.7172 32.1697C84.8223 31.6236 85.1211 31.109 85.6128 30.6258C86.7031 29.5909 88.1459 29.0105 89.6483 29.0025C90.8091 28.9832 91.9502 29.3044 92.9307 29.9265C93.8996 30.5532 94.6825 31.428 95.1991 32.46C95.7531 33.533 96.0304 34.7735 96.0304 36.1813C96.0304 37.5716 95.7531 38.8078 95.1991 39.8902C94.6834 40.9294 93.9006 41.8131 92.9307 42.45C91.9704 43.0755 90.846 43.4014 89.7001 43.3865C88.8995 43.388 88.1071 43.2262 87.3708 42.9118C86.6647 42.6224 86.02 42.2014 85.4713 41.671C84.9523 41.1612 84.6314 40.6246 84.5086 40.0616L85.3005 39.6919V48.956L82.0262 48.955ZM89.0415 40.5089C89.7409 40.5204 90.4282 40.3275 91.0197 39.9545C91.6049 39.58 92.0754 39.0504 92.3781 38.4245C92.6976 37.7225 92.864 36.9605 92.8664 36.1891C92.8683 35.4177 92.7062 34.6547 92.3911 33.9509C92.0932 33.3293 91.6274 32.8037 91.0461 32.4335C90.446 32.0582 89.7495 31.8656 89.0415 31.8793C88.333 31.8628 87.6346 32.0508 87.0297 32.4208C86.4469 32.7932 85.9773 33.3179 85.6713 33.9382C85.3413 34.6399 85.1705 35.4059 85.1705 36.1813C85.1705 36.9568 85.3413 37.7228 85.6713 38.4245C85.9792 39.0468 86.4484 39.5751 87.0297 39.9545C87.6317 40.3323 88.3311 40.5252 89.0415 40.5089Z" fill="black"/>
<path d="M104.18 43.4119C103.07 43.4206 101.984 43.0875 101.069 42.4582C100.115 41.7996 99.3433 40.9097 98.8262 39.8719C98.2617 38.7803 97.9791 37.5399 97.9791 36.1504C97.9791 34.7608 98.2617 33.5204 98.8262 32.429C99.3476 31.385 100.14 30.5006 101.121 29.869C102.099 29.2501 103.235 28.9291 104.392 28.945C105.046 28.9373 105.697 29.0402 106.317 29.2492C106.875 29.4393 107.393 29.7298 107.847 30.1063C108.278 30.4679 108.648 30.8974 108.941 31.3779C109.229 31.8481 109.43 32.3664 109.535 32.908L108.822 32.7236V29.2396H112.091V43.1503H108.794V39.823L109.558 39.6905C109.424 40.1907 109.195 40.6611 108.886 41.0763C108.549 41.5361 108.14 41.9374 107.673 42.2643C107.177 42.6137 106.636 42.8935 106.064 43.0951C105.459 43.3092 104.822 43.4163 104.18 43.4119ZM105.077 40.5348C105.785 40.5487 106.481 40.3563 107.081 39.9809C107.67 39.6033 108.14 39.0685 108.44 38.437C108.777 37.7243 108.944 36.943 108.928 36.1546C108.944 35.3789 108.776 34.6106 108.44 33.9114C108.137 33.2855 107.667 32.7556 107.081 32.3803C106.481 32.0055 105.785 31.813 105.077 31.8261C104.374 31.8116 103.681 32.0043 103.086 32.3803C102.509 32.7568 102.047 33.287 101.754 33.9114C101.427 34.613 101.264 35.3804 101.28 36.1546C101.263 36.9415 101.426 37.7218 101.754 38.437C102.044 39.0668 102.506 39.6019 103.086 39.9809C103.681 40.3572 104.374 40.5502 105.077 40.5348Z" fill="black"/>
<path d="M115.89 43.1504V23.6185H119.161V43.1504H115.89Z" fill="black"/>
<path d="M45.0776 12.9308C45.0776 19.9292 39.3886 25.622 32.395 25.622H18.1105C16.6331 25.622 15.4291 26.822 15.4291 28.3004V36.2636C15.4291 37.742 16.6331 38.9468 18.1105 38.9468H21.9863C21.9863 39.9699 21.9863 39.883 21.9863 41.0398C21.9863 42.1966 21.9863 42.5283 21.9863 43.1998L18.1105 43.1854C14.2971 43.1854 11.1936 40.0798 11.1936 36.2636V28.3004C11.1936 24.4892 14.2971 21.3836 18.1105 21.3836H32.395C37.0574 21.3836 40.8469 17.5916 40.8469 12.9308C40.8469 8.27002 37.0574 4.47322 32.395 4.47322H18.1105C16.6331 4.47322 15.4291 5.67802 15.4291 7.15642V13.5068C14.7833 13.5068 14.2976 13.5068 13.132 13.5068C11.9664 13.5068 11.7394 13.5068 11.1936 13.5068V7.15642C11.1936 3.34042 14.2971 0.239624 18.1105 0.239624H32.395C39.3886 0.239624 45.0776 5.93242 45.0776 12.9308Z" fill="black"/>
<path d="M29.9465 41.2347C29.9465 43.2085 28.3538 44.8103 26.3813 44.8103H26.3328C24.3846 44.7863 22.8163 43.1927 22.8163 41.2347C22.8163 39.2772 24.3846 37.6917 26.3328 37.6674H26.3813C28.3538 37.6674 29.9465 39.2691 29.9465 41.2347Z" fill="#003ACF"/>
<path d="M8.80454 18.7033C9.97284 18.7033 10.9199 17.7556 10.9199 16.5865C10.9199 15.4174 9.97284 14.4697 8.80454 14.4697C7.6363 14.4697 6.68918 15.4174 6.68918 16.5865C6.68918 17.7556 7.6363 18.7033 8.80454 18.7033Z" fill="#89EAC2"/>
<path d="M4.30009 18.7033C5.46838 18.7033 6.41546 17.7556 6.41546 16.5865C6.41546 15.4174 5.46838 14.4697 4.30009 14.4697C3.13179 14.4697 2.18472 15.4174 2.18472 16.5865C2.18472 17.7556 3.13179 18.7033 4.30009 18.7033Z" fill="#FF92B4"/>
<path d="M15.4225 16.5841C15.4225 17.754 14.4738 18.7033 13.3095 18.7033C12.1452 18.7033 11.1917 17.754 11.1917 16.5841C11.1917 15.4142 12.1404 14.4697 13.3095 14.4697C14.4786 14.4697 15.4225 15.4142 15.4225 16.5841Z" fill="#FFBA00"/>
</g>
<defs>
<clipPath id="clip0_797_74324">
<rect width="118" height="48" fill="white" transform="translate(0.830017 0.5)"/>
</clipPath>
</defs>
</svg>
